<?xml version="1.0" standalone="no"?>
<!DOCTYPE svg PUBLIC "-//W3C//DTD SVG 1.1//EN" "http://www.w3.org/Graphics/SVG/1.1/DTD/svg11.dtd" >
<svg xmlns="http://www.w3.org/2000/svg" xmlns:xlink="http://www.w3.org/1999/xlink" version="1.1">
<metadata>
Created by FontForge 20161003 at Mon Apr  3 13:14:27 2017
 By www-data
copyright missing
</metadata>
<defs>
<font id="Bonfire" horiz-adv-x="500" >
  <font-face 
    font-family="Bonfire"
    font-weight="400"
    font-stretch="normal"
    units-per-em="1000"
    panose-1="0 0 5 0 0 0 0 0 0 0"
    ascent="800"
    descent="-200"
    x-height="291"
    cap-height="707"
    bbox="-300 -364 1142.76 800"
    underline-thickness="50"
    underline-position="-150"
    unicode-range="U+0020-007A"
  />
<missing-glyph 
d="M410 -200h-317v1000h317v-1000zM168 733v-33h65v-37h-66v-33h166v33h-66v37h66v33h-165zM167 604v-104h166v34h-66v70h-100zM233 534h-33v36h33v-36zM167 473v-33h66v-37h-66v-33h100v70h66v33h-166zM300 413v-66h-133v-34h166v100h-33zM233 291v-56h34v23h33v-47h-100
v80h-33v-113h166v113h-100zM167 118v-113h166v113h-166zM300 38h-100v47h100v-47zM167 -18v-33h70l-70 -47v-33h166v33h-102l70 47h32v33h-166z" />
    <glyph glyph-name=".notdef" 
d="M410 -200h-317v1000h317v-1000zM168 733v-33h65v-37h-66v-33h166v33h-66v37h66v33h-165zM167 604v-104h166v34h-66v70h-100zM233 534h-33v36h33v-36zM167 473v-33h66v-37h-66v-33h100v70h66v33h-166zM300 413v-66h-133v-34h166v100h-33zM233 291v-56h34v23h33v-47h-100
v80h-33v-113h166v113h-100zM167 118v-113h166v113h-166zM300 38h-100v47h100v-47zM167 -18v-33h70l-70 -47v-33h166v33h-102l70 47h32v33h-166z" />
    <glyph glyph-name=".null" horiz-adv-x="0" 
 />
    <glyph glyph-name="nonmarkingreturn" horiz-adv-x="333" 
 />
    <glyph glyph-name="space" unicode=" " horiz-adv-x="300" 
 />
    <glyph glyph-name="A" unicode="A" horiz-adv-x="722" 
d="M514 -147q-28 -13 -54 2.5t-28 46.5q-3 50 23 96q56 98 86 146q72 119 145 255q45 86 33 164q-10 65 -74 81q-84 23 -172 -5q-125 -41 -214 -119q-74 -63 -106 -160q-28 -83 0 -138q8 -15 -1 -20q-9 -7 -23 0q-25 12 -37 47q-16 45 6 116q24 74 71 127q154 170 398 192
q63 0 136 -20q62 -16 86 -86q32 -96 -18 -197t-142 -251q-9 -15 -32 -51.5t-38 -63.5t-26 -54q-2 -6 -10.5 -21.5t-11.5 -24t-1.5 -22.5t12.5 -26q6 -7 -8 -14zM5 -141q-11 6 -3 14q51 49 91 106.5t89 141.5q-51 3 -87 -37q-18 -20 -35.5 -23t-25.5 9q-18 22 29 57
q48 34 106 36q41 0 64 38q54 81 136 188q49 65 149 131q28 19 55 21q5 1 6.5 -3.5t-2.5 -7.5q-88 -70 -170.5 -174.5t-113.5 -184.5q3 -6 6.5 -8t12.5 -2h9l161 -9q28 -2 34 -15q-19 -21 -64 -21q-50 -3 -146 7q-45 3 -64 -34q-40 -76 -95 -147q-39 -50 -79 -74
q-36 -23 -63 -9z" />
    <glyph glyph-name="B" unicode="B" horiz-adv-x="820" 
d="M54 -156q-49 6 -54 45q-4 36 34 57q48 27 96 20q43 -7 74 37q77 113 213 303q78 110 190 183q41 27 80 29q5 1 6.5 -3.5t-2.5 -7.5q-79 -53 -156 -140q-28 -31 -92 -126q-38 -55 -107 -158.5l-91 -136.5q14 -5 47.5 -18.5t52 -19.5t46.5 -12.5t54 -5t52 9.5
q157 50 182 199q4 18 1 41q-12 64 -78 56q-18 -4 -28 -7q-2 0 -8.5 -2.5t-10 -3t-8.5 -0.5t-8 3.5t-5 9.5q-3 11 5.5 17t22.5 10q88 24 146.5 85.5t110.5 157.5q44 83 8.5 142t-129.5 58q-265 0 -432 -173q-67 -68 -89 -160q-7 -28 -5 -47q2 -29 11.5 -42t35.5 -22
q5 -1 5 -5.5t-5 -6.5q-35 -14 -63.5 -0.5t-38.5 49.5q-12 39 0 90q21 83 82 147q159 173 418 200q118 13 193 -11q84 -26 110 -89.5t-17 -140.5q-68 -123 -173 -198q-4 -3 -12.5 -8.5t-14 -10.5t-9.5 -11q53 -44 62.5 -80.5t-12.5 -102.5q-31 -93 -118 -142
q-150 -84 -321 -33q-22 6 -32 11q-61 31 -111 -9q-43 -35 -108 -27zM68 -111q2 -4 4.5 -6t6 -1.5t6 1.5t6 3t5.5 3q28 15 35 35q-26 12 -51 -7q-19 -15 -12 -28z" />
    <glyph glyph-name="C" unicode="C" horiz-adv-x="577" 
d="M121 -136q-96 37 -115 139q-17 83 14 177q88 259 342 441q93 65 202 49q64 -10 98.5 -55t21.5 -106q-44 -203 -230 -288q-69 -30 -134 -1q-43 21 -35 65q9 48 46 59q5 1 9 -2t3 -8t-4.5 -15.5t-4.5 -16.5q-2 -38 20 -55.5t58 -5.5q10 2 13 5q160 86 199 248q5 20 5 37
q-1 59 -43 90t-97 13q-54 -16 -112 -69q-187 -168 -261 -382q-34 -97 -17 -176q7 -34 21 -58q23 -40 63 -54t83 4q70 28 111 78q25 28 33 67q5 29 -11.5 47t-46.5 17h-19q-12 0 -15 9q-2 9 8 15q22 14 62 10t64 -22q52 -39 30 -105q-7 -21 -16 -35q-31 -45 -81.5 -79.5
t-120.5 -50.5t-143 14z" />
    <glyph glyph-name="D" unicode="D" horiz-adv-x="857" 
d="M53 -158q-44 2 -52 32q-8 31 30 54q47 28 114 25q32 -1 50 27q24 39 71.5 115t70.5 115q102 168 206 259q47 43 92 66q33 15 48 6q2 -7 -9 -16q-130 -93 -236 -263q-29 -46 -88 -149.5t-94 -156.5l-2 -12q117 -44 214 -1q192 87 307 287q45 81 61 143q14 56 11 84
q-12 116 -83.5 163.5t-184.5 24.5q-183 -38 -307 -216q-12 -17 -24 -52q-28 -83 23 -130q5 -4 3 -9.5t-8 -5.5q-73 -5 -89 65q-15 74 30 145q32 50 84 97t123.5 86t152 53t169.5 -2q116 -24 161 -101.5t22 -175.5q-79 -356 -415 -495q-111 -45 -252 -10q-37 9 -65 -12
q-60 -46 -134 -40zM71 -119q42 0 61 33q-26 -1 -40 -7.5t-21 -25.5z" />
    <glyph glyph-name="E" unicode="E" horiz-adv-x="587" 
d="M160 -177q-81 15 -128 80.5t-27 161.5q23 109 136 198q94 74 176 83q-44 84 -26 179q10 51 59.5 97t115.5 63.5t136 -7.5q52 -22 73 -65.5t6 -96.5q-30 -100 -132 -153q-15 -8 -27 -4q-9 2 -5 10q2 5 6.5 8t11 5.5t9.5 4.5q95 69 92 166q-2 57 -45.5 90t-98.5 19
q-44 -12 -77.5 -47t-48 -78t-9.5 -91t33 -84q20 -27 42 -37q18 -7 28 -17q16 -18 -7 -26q-21 -8 -45 4q-6 2 -19 9t-20 9q-39 16 -69 2q-152 -71 -200 -196q-30 -77 -4 -148q19 -56 78 -92q30 -16 54 -12q139 20 195 139q17 36 16.5 61t-20.5 53q-3 4 -1.5 9t6.5 7
q39 12 67.5 -10t26.5 -64q-3 -71 -51 -125q-122 -139 -307 -105z" />
    <glyph glyph-name="F" unicode="F" 
d="M134 -164q-27 9 -39.5 34t-5.5 59q14 63 73 131q2 2 7.5 8t9 9.5t7.5 9.5t7 13q-108 -7 -135 -8q-4 0 -12.5 -0.5t-14.5 -1t-12.5 0.5t-10.5 4t-4 9q-1 10 4.5 15t14 5.5t18 1t16.5 0.5q53 6 165 12q28 2 40 12q73 58 126 111.5t89 118.5q54 98 8 189q-28 61 -96 76
q-168 38 -279 -86q-49 -56 -52.5 -111t35.5 -127q6 -14 -8 -18t-33 8q-46 31 -51 92q-12 138 106 219q108 73 242 64q50 -3 98 -15q94 -22 134 -106t-1 -172q-40 -84 -113 -157q-56 -56 -144 -123q-97 -73 -147 -164q0 -1 -4.5 -9t-5 -9.5t-4.5 -9t-4.5 -10t-3 -9t-3 -10
t-1.5 -10t-0.5 -11t1 -10t2.5 -11.5q4 -12 -2.5 -15t-16.5 1z" />
    <glyph glyph-name="G" unicode="G" horiz-adv-x="683" 
d="M223 -95q77 -26 139 20q54 41 90 103q40 67 69 140q78 193 164 331q-62 -17 -89 -23q-86 -20 -145 0q-24 8 -45 -14q-82 -84 -127 -121q-23 -19 -38 -16q-6 1 -8 7t2 11q120 118 154 159q-17 19 -27 31q-28 36 -25.5 75t34.5 71q55 52 127 37q54 -11 40 -66
q-12 -40 -53 -95q-13 -18 -12 -26q31 -31 73 -20q80 18 135 40t100 64q26 26 60 26q22 0 29 -11q7 -12 -7 -30q-2 -4 -10 -12q-87 -94 -177 -283q-14 -31 -38 -88.5t-33 -77.5q-48 -110 -95 -169q-86 -106 -222.5 -115.5t-236.5 84.5q-72 69 -42 165q30 93 130 136.5
t188 2.5q68 -31 74 -108q4 -46 -30 -77t-83 -26q-21 5 -24 12q-4 10 12 23q59 62 8 126q-24 31 -62 24q-42 -8 -80.5 -46t-47.5 -82q-19 -90 62 -147q33 -24 67 -35zM438 571q38 42 44 90q0 16 -11 18q-8 2 -16 -7q-37 -45 -17 -101z" />
    <glyph glyph-name="H" unicode="H" horiz-adv-x="650" 
d="M135 -145q-47 1 -61 46q-20 54 7 120q9 23 38 85q-11 1 -35.5 2.5t-37.5 2.5q-17 2 -17 14q0 11 17 13q25 6 76 6q29 0 41 18q24 36 75 95t68 81q72 94 84 179q6 47 -10 84q-13 30 -42.5 45.5t-62.5 8.5q-161 -35 -207 -179q-24 -74 3 -139q7 -16 3 -21q-9 -10 -27 -5
q-34 11 -42 53q-11 57 3 108q17 62 60 110t95 71.5t109 32t103 -9.5q43 -14 72 -48.5t33 -79.5q6 -66 -28 -133q-36 -75 -120 -164q-50 -53 -77 -93q1 -5 3 -7.5t5 -3.5t5 -1.5t6 0t5 0.5q107 -2 176 4q32 2 44 21q15 23 45.5 68.5t48.5 73.5t42 68.5t41 75.5q62 127 53 228
v14q0 21 18 24q19 3 26 -15q17 -40 17 -88q0 -63 -30 -148q-38 -104 -110 -215q-91 -139 -200 -344q-1 -1 -4 -6.5t-4 -7t-4 -4.5t-6 -3.5t-8 -0.5q-8 1 -12 4.5t-6 12t-3 10.5q-16 41 5 88l52 106q-39 -3 -220 -3q-21 0 -34 -21q-46 -69 -70 -165q-6 -19 9 -54
q2 -5 -1.5 -10t-8.5 -4z" />
    <glyph glyph-name="I" unicode="I" horiz-adv-x="384" 
d="M161 -128q-33 6 -56.5 35t-22.5 64q0 28 16 64q36 77 93 142q30 34 87.5 97t74.5 82q57 63 87 124q19 38 23 71q5 41 -18.5 75t-63.5 42q-74 14 -138.5 -9t-103.5 -68.5t-57 -102t-7 -107.5q6 -33 25 -61q9 -15 4 -22q-7 -10 -26 -6q-39 4 -61 47q-26 52 -11 125
q21 102 100 168.5t189 74.5h48q59 3 111 -17q65 -25 89 -77.5t-1 -116.5q-27 -69 -86 -136q-54 -62 -127 -140q-93 -103 -130 -174q-21 -44 -28 -85q-5 -36 11 -64q7 -16 1 -21q-9 -7 -22 -4z" />
    <glyph glyph-name="J" unicode="J" horiz-adv-x="659" 
d="M204 -250q-105 -25 -163 27t-36 147q20 81 98.5 118t152.5 0q60 -31 42 -85q-8 -23 -32.5 -39t-49.5 -14q-19 1 -23 8t4 24q22 54 -4 74q-28 21 -71 -22q-69 -69 -42 -150q25 -73 97 -46q39 14 80 50q74 63 130 137q148 190 241 450q11 32 17 88q6 60 -42.5 100.5
t-105.5 31.5q-153 -27 -224 -165q-55 -105 7 -201q5 -9 -4 -11q-26 -4 -50 20q-45 51 -34 124q13 100 91 174.5t183 89.5q84 13 150 -9q72 -25 103 -77.5t13 -129.5q-9 -38 -19 -63q-122 -317 -289 -497q-52 -55 -94 -90q-60 -49 -126 -64z" />
    <glyph glyph-name="K" unicode="K" horiz-adv-x="662" 
d="M7 -184q-5 2 -6.5 8.5t2.5 10.5q8 8 33.5 30.5t36.5 37.5q65 83 132 196q17 29 48.5 82t57.5 96.5t50 82.5q78 128 197 216q1 1 6 4.5t6.5 4.5t7 4.5t7.5 4t7.5 3t8 2t9.5 1t10 -0.5q5 -1 6.5 -5t-1.5 -8q-99 -104 -104 -110q-44 -51 -86 -121q-18 -30 -89 -158
q94 11 157 45q120 66 203 161q17 19 47 54.5t55.5 63.5t49.5 52q63 60 126 83q28 9 48 5q6 -1 8.5 -6.5t-0.5 -9.5l-2 -2q-37 -19 -73.5 -51.5t-57 -57t-55.5 -70.5q-90 -121 -184 -190q-120 -88 -232 -105q26 -31 32.5 -68t1.5 -61t-19 -67q-12 -28 -10.5 -57.5t24.5 -52.5
q11 -11 16.5 -16t16.5 -9t23 -1q10 3 18 -3q5 -3 3 -8q-3 -8 -19 -10q-47 -12 -94 2q-45 12 -67.5 48.5t-12.5 82.5q3 13 14 51t14 59q6 44 -17 76q-15 20 -25 20t-23 -22q-10 -17 -37 -65t-43 -74q-66 -108 -146 -158q-24 -14 -43 -20q-20 -7 -36 0z" />
    <glyph glyph-name="L" unicode="L" horiz-adv-x="844" 
d="M398 -164q-73 8 -163 28q-88 19 -167 15q-5 -1 -17 -1h-11t-13 0.5t-11 2t-9.5 5t-5.5 8.5q-3 10 1.5 16.5t19 12.5t16.5 7q111 70 187 209q6 11 105 212q48 100 102 164q59 71 140 111q56 29 124 21q45 -5 69.5 -35.5t22.5 -75.5q-4 -67 -62.5 -133.5t-123.5 -78.5
q-10 -2 -16 -2q-10 1 -11.5 10t6.5 13q3 1 8.5 2.5t8.5 2.5q97 45 131 153q9 33 2 58q-11 38 -37.5 50.5t-62.5 -4.5q-76 -36 -127 -105q-46 -61 -84 -147l-78 -172q-69 -149 -178 -243q-10 -8 -10 -18q19 -4 62 -10t66 -11q99 -23 168 -27q77 -3 144 26q71 32 105 103
q12 26 8.5 40.5t-25.5 33.5q-1 1 -4 3q-9 7 -6 14q3 9 19 11q59 5 89 -33q25 -30 4 -81q-33 -81 -126 -122q-115 -49 -260 -33z" />
    <glyph glyph-name="M" unicode="M" horiz-adv-x="920" 
d="M17 -177q-13 1 -16 8.5t5 17.5q8 8 24.5 22.5t24.5 22.5q18 20 38 47t29 40.5t34.5 53.5t28.5 46q14 22 47 76t51.5 83.5t48 72.5t56.5 77q114 144 249 232q34 21 51 24q12 2 17 -4.5t0 -17.5q-3 -7 -14 -30q-108 -201 -213 -520q-6 -17 -3 -29q2 -6 8 -2q15 14 41 44
t31 36l79 86q154 168 239 243q75 66 133 101q3 1 11 6t13 7q31 13 45 -2q2 -3 3.5 -5.5t1 -6t-0.5 -5.5t-2 -5.5t-2.5 -5.5t-3 -6t-3.5 -5q-28 -54 -59 -103q-54 -88 -77 -126t-61 -111t-61 -134q-13 -33 -35 -99q-15 -44 -5 -89q4 -16 -1.5 -22t-21.5 -4q-55 7 -60 63
q-5 66 26 149q49 135 171 322q1 2 9 14.5t13 20.5q1 2 -0.5 4t-3.5 1q-12 -4 -35 -27q-123 -113 -269 -281q-47 -54 -141 -160q-25 -29 -46 -30t-30.5 7.5t-8.5 27.5q0 42 13 89q57 198 153 377q10 17 28 51.5t27 51.5q2 3 -0.5 5.5t-5.5 1.5q-8 -3 -22 -19
q-87 -98 -162 -222q-39 -62 -110 -177.5t-90 -145.5q-50 -79 -111 -115q-43 -24 -75 -22z" />
    <glyph glyph-name="N" unicode="N" horiz-adv-x="808" 
d="M68 -191q-29 5 -22 34q6 22 35 67q78 123 244 361q38 54 75 121q44 80 7 134q-37 52 -129 41q-89 -11 -150 -73.5t-66 -148.5q-5 -73 37 -115q3 -3 1.5 -6.5t-5.5 -4.5q-67 -3 -85 63q-31 107 32 194q84 115 255 127q72 6 135 -20q57 -25 76 -71t-4 -104
q-2 -5 -12.5 -26.5t-13.5 -33.5q-4 -14 11 -1q1 1 3.5 3t3.5 3q7 7 19.5 22t19.5 22q84 86 165 135q83 50 147 44q49 -4 69 -32t8 -75q-15 -55 -58 -114q-18 -24 -68.5 -90.5t-77.5 -102.5q-75 -103 -102 -165q-16 -34 -20 -53q-10 -37 -4 -54t35 -34q10 -6 2 -14
q-32 -26 -91 -3q-44 16 -41 73q3 43 27 95q20 43 53 92.5t51 74t65 84.5q82 106 106 146q37 62 35 107q-1 23 -9 28.5t-29 -1.5q-59 -21 -125 -77q-130 -109 -248 -248q-182 -215 -286 -366q-31 -44 -71 -38z" />
    <glyph glyph-name="O" unicode="O" horiz-adv-x="694" 
d="M142 -167q-78 16 -114.5 67t-25.5 129q18 125 84 236q98 164 271 282q48 32 151 66q79 27 161 -31q59 -42 55 -122q0 -54 -12 -97q-79 -280 -262 -425q-64 -50 -150 -89q-76 -33 -158 -16zM558 238q24 -7 34 15q37 87 49 153q9 51 -4 98q-11 39 -42 61q-25 18 -43 15.5
t-37 -28.5q-45 -64 -48 -156q-1 -58 36 -115q23 -32 55 -43zM241 -117q40 18 98 55q129 86 227 264q-36 6 -63.5 15.5t-53 25t-41.5 38t-25.5 52.5t-8.5 72t13 93q-10 1 -27 -14q-110 -104 -179 -219q-64 -112 -84 -230q-9 -56 6 -94q17 -46 54.5 -61.5t83.5 3.5z" />
    <glyph glyph-name="P" unicode="P" horiz-adv-x="718" 
d="M142 115q-27 -3 -50.5 19t-27.5 55q-6 61 13 116q48 143 148.5 237t220 128.5t247.5 20.5q60 -7 111 -39q60 -35 77.5 -89.5t-11.5 -117.5q-77 -168 -225 -254q-68 -41 -151 -53q-49 -9 -77 6q-8 6 -3 12q3 4 6.5 5t8.5 1.5t7 1.5q240 57 347 300q28 66 -3.5 121
t-105.5 70q-86 18 -195 -20q-250 -84 -331 -360q-26 -83 7 -137q11 -19 -13 -23zM4 -184q-4 1 -4.5 5t2.5 6q50 35 94 86.5t68.5 90.5t61.5 105q7 12 10 18q125 221 220 329q64 72 118 102q35 20 62 8q2 -2 2 -3v-1l-1 -2q-62 -51 -120.5 -125.5t-92 -130.5t-86.5 -152
q-9 -17 -32.5 -60.5t-36.5 -66.5t-34.5 -56.5t-41.5 -60.5q-48 -64 -115 -88q-38 -14 -74 -4z" />
    <glyph glyph-name="Q" unicode="Q" horiz-adv-x="846" 
d="M345 -116q-77 16 -113.5 67.5t-25.5 129.5q18 123 84 234q97 164 270 282q44 30 151 66q78 27 160 -31q59 -42 55 -122q0 -54 -12 -97q-77 -278 -261 -423q-65 -52 -150 -89q-77 -33 -158 -17zM761 289q24 -7 33 15q36 85 49 152q9 51 -4 98q-11 40 -42 61q-25 18 -43 15
t-36 -28q-45 -64 -48 -155q-3 -57 36 -116q21 -32 55 -42zM444 -66q42 18 98 56q127 84 226 263q-43 7 -74.5 19.5t-59.5 34.5t-40 53.5t-16 78.5t12 109q-10 1 -27 -14q-111 -105 -178 -219q-63 -107 -84 -229q-9 -56 6 -93q17 -46 54.5 -62t82.5 3zM681 -320
q-118 17 -242 78q-111 53 -197 65q-110 16 -195 -38l-12 -7q-19 -11 -30 1q-13 14 6 33q20 23 56 33q67 23 134 20q137 1 305 -79q120 -56 220 -68q33 -3 56 3q37 10 50 39q9 22 31 29.5t43 -3.5q27 -12 14 -44q-11 -26 -53 -45q-70 -32 -186 -17z" />
    <glyph glyph-name="R" unicode="R" horiz-adv-x="763" 
d="M554 -211q-28 -16 -71.5 -4.5t-60.5 37.5q-16 27 -8 64q12 65 6 104q-7 45 -24 69.5t-59 27.5q-8 0 -15 5q-10 8 -7 14q0 1 2 3l1 1q14 11 49 9q157 -6 286 115q70 67 121 151q27 47 23 99q-5 64 -50 98q-64 45 -127 48q-294 14 -474 -217q-81 -106 -77 -223
q4 -65 24 -106q12 -21 8 -32q-37 -17 -64 19t-34 88q-18 149 71 267q184 238 494 247q125 3 207 -38q76 -38 98 -85q41 -84 -3 -164q-81 -150 -227 -242q-50 -32 -123 -47q-31 -5 -40 -12q26 -49 29 -61q13 -60 2 -126q-7 -44 -1.5 -55t44.5 -33q7 -3 8 -10q0 -8 -8 -11z
M37 -184q-19 -2 -25 9l6 12q26 20 51 48t39.5 49t39.5 59.5t36 54.5q170 248 190 277q58 83 123 143q40 38 89 62l4 2q5 2 6 2.5t5.5 2t6 1.5h5.5t6.5 -1t5.5 -3t6 -5q6 -4 -1 -9q-77 -51 -151 -157l-153 -228l-64 -106q-50 -91 -107 -150q-56 -58 -118 -63z" />
    <glyph glyph-name="S" unicode="S" horiz-adv-x="654" 
d="M304 -219q-120 -9 -212 54q-82 56 -91 143t61 159q48 50 126 64t138 -16q62 -30 69 -89q5 -44 -25 -71.5t-76 -20.5q-5 1 -7.5 6t0.5 10q35 46 10 95q-14 28 -44.5 39t-59.5 -1q-55 -22 -82 -73.5t-16.5 -110t56.5 -97.5q71 -61 158.5 -45.5t133.5 97.5q94 166 -20 345
q-12 18 -37.5 52t-37.5 52q-34 53 -38.5 110.5t17 105.5t68 83.5t108.5 45.5q65 11 122 -7q104 -35 87 -142q-9 -59 -66.5 -115.5t-116.5 -64.5q-16 -2 -23 4q-9 7 0 14q5 5 18.5 10.5t15.5 6.5q49 30 77 63t34 81q8 66 -36 100t-106 10q-57 -22 -95.5 -94.5t-7.5 -141.5
q20 -45 90 -138q38 -47 59 -104q41 -107 12 -214q-25 -88 -95 -142.5t-168 -62.5z" />
    <glyph glyph-name="T" unicode="T" horiz-adv-x="539" 
d="M79 55q-59 10 -76 97l-3 18q-3 38 15 82t44 79q91 124 229 185q146 66 359 73q150 6 236 20q52 9 82 34q23 19 21 34q-3 25 17 28q34 4 47 -14q16 -24 2 -44q-27 -38 -74 -57q-64 -22 -134 -27q-27 -2 -132 -7.5t-161 -11.5q-268 -31 -413 -213q-35 -43 -51 -85
q-34 -92 9 -164q10 -15 5 -21q-8 -8 -22 -6zM129 -184q-20 2 -22 14q-2 8 14 17q25 15 48 39.5t35.5 42.5t33.5 52q23 38 84 139t95 155q86 138 208 224q53 38 93 38q5 0 8.5 -5t1.5 -10q-1 -2 -4 -5q-94 -66 -162.5 -158t-143.5 -227q-52 -91 -61 -106q-6 -10 -24 -41
t-27.5 -46t-26.5 -37t-35 -38q-57 -51 -115 -48z" />
    <glyph glyph-name="U" unicode="U" horiz-adv-x="810" 
d="M647 -210q-35 -6 -62.5 10t-39.5 48q-17 41 -6 89q12 54 21 91q-30 -26 -76 -64q-91 -76 -186 -112q-78 -29 -139 -13q-104 29 -72 132q21 68 65 126q19 26 59 77.5t59 77.5q71 96 96 173q22 61 -2 116q-23 54 -83 45q-70 -11 -133.5 -68.5t-79.5 -126.5q-14 -55 7 -107
q7 -19 -1 -26q-12 -9 -27 -1q-34 11 -43 58q-12 67 15 125q40 86 124 137.5t178 47.5q85 -3 125.5 -60t15.5 -139q-24 -79 -96 -178q-24 -33 -70 -93t-57 -75q-40 -52 -61 -122q-6 -24 -6 -36q1 -25 17.5 -36.5t40.5 -3.5q86 30 156 89q127 106 224 204t172 208q21 29 51 56
q29 27 71 19q40 -8 17 -39q-17 -23 -56.5 -73t-59.5 -77q-67 -92 -109.5 -168.5t-61.5 -161.5q-4 -19 -6 -76q-2 -42 22 -59q3 -2 3.5 -5t-1.5 -6t-5 -3z" />
    <glyph glyph-name="V" unicode="V" horiz-adv-x="841" 
d="M239 -196q-129 18 -93 144q15 50 52 116q14 25 31 49t43.5 59.5t34.5 46.5q79 110 111 177q30 59 26 107q-2 43 -36 71.5t-78 24.5q-107 -9 -184.5 -97.5t-75.5 -200.5q0 -79 33 -118q4 -5 1.5 -10t-7.5 -7q-32 -5 -55 11.5t-33 50.5q-19 69 2 150q26 96 91 158.5t141 84
t156 11.5q76 -10 111.5 -63.5t17.5 -128.5q-12 -49 -58 -124q-30 -50 -128 -183q-64 -87 -92 -160q-18 -48 -18 -73q0 -29 12.5 -42.5t41.5 -15.5q26 -2 64 12q71 29 127 74q268 219 382 511q25 62 35 123q16 108 -31 200q-3 6 0 11t10 5q42 -1 68 -44q34 -60 29 -142
q-8 -122 -80 -267q-120 -239 -328 -413q-64 -52 -146 -88q-81 -34 -177 -20z" />
    <glyph glyph-name="W" unicode="W" horiz-adv-x="1023" 
d="M132 -170q-40 7 -58 33.5t-11 66.5q12 66 70 133q24 27 146 162q54 62 80 94q34 41 47 92q17 65 -23 111.5t-106 39.5q-89 -9 -153 -102q-89 -134 -23 -254q7 -14 3 -20.5t-19 -5.5q-39 3 -61 40q-39 68 -15 151q37 122 131 185.5t235 36.5q80 -16 112.5 -82t-0.5 -141
q-23 -52 -90 -127l-166 -183q-47 -52 -64 -99q-12 -36 -14 -55q-4 -30 10.5 -41.5t42.5 -0.5q51 20 107 62q154 116 261 260l150 202q16 20 25 28q16 16 30 5q13 -10 1 -30q-11 -18 -33 -52q-90 -134 -134 -201q-43 -66 -63 -128q-12 -34 -11 -55q5 -74 72 -49q32 11 70 40
q228 176 333 402q63 138 47 267q-6 38 -21 73q-1 1 -3 5.5t-2.5 6.5l-1.5 6t0.5 6.5t4.5 5.5q17 14 39 -2q34 -28 43 -50q32 -75 19 -153q-13 -73 -48 -148q-123 -250 -343 -432q-76 -61 -153 -70q-36 -6 -70 6q-62 20 -65 88q0 22 -2 26q-4 6 -9 1q-8 -6 -34 -27.5
t-40 -32.5q-60 -49 -123 -79q-54 -28 -120 -15z" />
    <glyph glyph-name="X" unicode="X" horiz-adv-x="786" 
d="M907 -307q-64 -13 -120 16q-130 65 -176 185q-14 37 -31 106.5t-24 112.5q0 3 -0.5 13t-2.5 16t-7 11q-8 -2 -14 -7t-13.5 -14t-10.5 -12q-14 -14 -97 -105.5t-131 -136.5q-2 -1 -6.5 -6t-6 -6t-6.5 -5.5t-7 -4.5t-7.5 -3t-8.5 -2t-10 0q-34 7 -19 37q19 30 37 50
q119 141 265 276q38 35 31 79q-3 20 -8 59t-10 69.5t-13 57.5q-35 116 -137 159q-34 15 -75 12q-66 -5 -118.5 -37.5t-79 -79t-36 -102t8.5 -106.5q2 -10 4 -14q5 -13 -1.5 -17.5t-18.5 -1.5q-42 8 -53 59q-13 53 2 113q40 166 208 210q83 21 157.5 3.5t132.5 -62.5t83 -104
q20 -46 33 -123q1 -6 3.5 -20.5t3.5 -22.5q0 -2 1 -3t4 -1q11 0 26 15q34 35 185 174q23 23 39 26q17 4 19.5 -5.5t-7.5 -20.5q-42 -64 -148 -162q-7 -6 -35 -30.5t-40 -37.5t-24 -38t-10 -50q7 -74 10 -104.5t14 -88.5t26 -101q29 -79 83.5 -135.5t128.5 -61.5h13
t20.5 -1.5t13.5 -4.5q5 -3 2 -8q-2 -5 -42 -14z" />
    <glyph glyph-name="Y" unicode="Y" horiz-adv-x="699" 
d="M380 -218q-19 1 -26.5 9.5t-5.5 27.5q2 17 20 58q34 73 104 219q7 17 2 28q-80 -57 -161 -50q-38 4 -55 13q-58 31 -45 95q9 43 44 105q60 109 76 152q17 47 21 83q4 51 -30.5 76.5t-76.5 10.5q-57 -20 -86 -47q-109 -105 -93 -253q5 -52 44 -86q2 -2 4 -3
q5 -4 3.5 -10.5t-8.5 -7.5q-37 -4 -68 20t-38 64q-21 106 41 214q84 145 245 144q74 -1 111.5 -44t28.5 -116q-9 -58 -55 -151q-9 -17 -52 -103q-9 -23 -16 -44q-11 -43 14 -65q7 -5 14.5 -6t12 0.5t13.5 6t12 5.5q38 17 69 42q145 127 210 231q52 85 110 148q28 28 48 29
q19 2 25.5 -7t-2.5 -26q-7 -15 -35 -62q-239 -374 -352 -645q-13 -33 -28 -45t-39 -10z" />
    <glyph glyph-name="Z" unicode="Z" horiz-adv-x="449" 
d="M4 -229q-9 7 9 21q2 1 15 11q17 14 83 61q76 54 131 121q46 57 60 120q6 37 1 68q-6 31 -29 45t-55 9q-6 -1 -18.5 -4t-19.5 -4q-28 -6 -54 6q-12 7 -13 17.5t10 19.5q13 10 29 18q113 65 180 125q42 36 59 65q34 54 14 97t-83 50q-120 13 -209 -80q-13 -13 -29 -41
q-26 -40 -25.5 -69t28.5 -65q4 -5 0 -11t-11 -5q-6 3 -8 3q-35 14 -48.5 48t-0.5 73q19 55 63 97q60 59 153.5 74.5t168.5 -20.5q61 -30 76 -81.5t-22 -108.5q-6 -8 -12.5 -16.5t-12.5 -15.5t-14.5 -15t-14 -13.5t-15.5 -13.5t-15.5 -12.5t-16.5 -13t-15.5 -11.5t-17 -12
t-16.5 -12q-32 -21 -37 -29q4 -2 15.5 -6t17.5 -7q84 -33 80 -125q-1 -65 -41 -127q-42 -66 -122 -133q-22 -18 -135 -94q-38 -27 -83 -4z" />
    <glyph glyph-name="a" unicode="a" horiz-adv-x="495" 
d="M61 -10q-37 6 -52 29.5t-5 59.5q7 21 20 48q50 91 147 164q49 35 112 30q39 -2 52.5 -16.5t15.5 -53.5l2 -16l36 38q24 26 37 30t35 -6q3 -5 4 -9.5t-0.5 -9t-3.5 -7.5t-6 -8.5t-5 -7.5q-17 -27 -50.5 -75.5t-42.5 -61.5q-30 -48 -5.5 -58t82.5 30q34 24 155 134
q22 20 36 21q13 0 17 -6q8 -7 -2 -17l-6 -7q-15 -13 -65.5 -60.5t-88 -77t-74.5 -49.5q-31 -17 -53 -20q-40 -6 -62.5 9.5t-30.5 56.5q-96 -63 -134 -77q-31 -12 -65 -7zM115 34q39 19 74 47q51 40 80 92l22 39q11 18 15 39q0 1 0.5 3t0.5 3q0 51 -46 38q-22 -6 -49 -29
q-67 -56 -108 -124q-24 -37 -33 -72q-4 -22 6.5 -36t37.5 0z" />
    <glyph glyph-name="b" unicode="b" horiz-adv-x="334" 
d="M46 -85q-58 27 -56 101q3 57 29 109q123 248 311 374q54 37 88 46q31 9 51 3q30 -7 27 -38q-2 -28 -25 -61q-77 -112 -214 -173q-15 -7 -33 -14t-23.5 -9.5t-13 -6.5t-10.5 -7.5t-7 -10.5q-60 -100 -76 -157q-17 -57 -5 -93q18 -61 71 -26q57 38 63.5 96.5t-40.5 108.5
l-3 3q-10 9 -6 16q3 7 16 9q44 0 52 -1q85 -10 185 45q3 2 12.5 8t14.5 8.5t12.5 1t12.5 -9.5q4 -6 -1 -11.5t-16.5 -12t-15.5 -9.5q-71 -56 -184 -58q27 -65 20.5 -113t-46.5 -87q-37 -35 -90.5 -44t-99.5 13zM214 292q85 28 156.5 98t73.5 128q-119 -73 -230 -226z" />
    <glyph glyph-name="c" unicode="c" horiz-adv-x="298" 
d="M111 -3q-36 0 -56 9q-51 25 -44 81q2 12 4 18q53 154 211 219q36 14 77 -3q30 -12 18 -41q-14 -42 -45 -56q-10 -5 -16 3q-2 6 1 12q2 6 7.5 16t7.5 15q5 19 -4 25q-8 8 -27 -4q-5 -2 -13 -8q-105 -88 -134 -188q-6 -20 -6 -30q-3 -44 40 -33q48 10 100 52q31 26 86 75.5
t86 75.5q15 12 19 14q8 4 15 -9.5t0 -19.5q-22 -20 -61.5 -57.5t-69.5 -64t-64 -51.5q-65 -49 -132 -50z" />
    <glyph glyph-name="d" unicode="d" horiz-adv-x="596" 
d="M63 4q-36 5 -52.5 28.5t-7.5 58.5q18 72 87.5 135.5t142.5 74.5q39 6 70 -3q39 -13 32 -49q-10 -51 -47 -80q-9 -7 -17 0q-9 6 -1 16q22 30 26 50q5 23 -6 33.5t-34 3.5q-19 -4 -38 -17q-83 -50 -133 -156q-12 -26 -10 -41q5 -31 33 -24q44 13 66 26q48 29 88 55
q47 31 78 86q87 154 246 285q70 58 111 80q37 19 73 15q39 -4 35 -45q-3 -19 -21 -53q-51 -95 -177 -201q-24 -21 -98 -74q-22 -20 -28 -2q-5 16 9 27q1 0 2 1q132 102 189 171q38 43 58 86q14 32 11 46q-7 0 -14 -3t-10.5 -6t-10 -8.5t-9.5 -7.5q-159 -130 -278 -320
q-31 -49 -39 -91q-7 -35 10.5 -51t52.5 -5q24 8 66 36q52 37 166 140q31 29 53 22q5 -14 -7 -26q-110 -101 -203 -167q-43 -30 -81 -36q-53 -10 -87.5 6.5t-60.5 66.5q-113 -63 -142 -73q-49 -16 -93 -10z" />
    <glyph glyph-name="e" unicode="e" horiz-adv-x="362" 
d="M110 1q-27 3 -49 15q-47 27 -40 79q4 30 20 58q67 121 185 168q49 20 103 8q32 -8 39.5 -28t-11.5 -46q-64 -84 -178 -95q-25 -3 -16 21q41 5 65.5 17.5t63.5 41.5q22 18 29 31t1.5 22t-19.5 11q-12 2 -31 -7q-61 -33 -110 -93t-59 -116q-5 -32 12 -48t49 -11q21 3 57 21
q30 14 59.5 35t66.5 50.5t54 41.5q9 7 34.5 28t32.5 26q19 14 29 15q9 0 13.5 -7.5t0.5 -16.5q-1 -2 -6 -7q-8 -7 -40.5 -33.5t-44.5 -36t-40.5 -31t-46 -33.5t-42.5 -28t-48 -28q-58 -30 -133 -24z" />
    <glyph glyph-name="f" unicode="f" horiz-adv-x="333" 
d="M40 -236q-61 -4 -91 28t-21 93q6 44 25 89q41 98 99.5 189t143.5 206q21 31 45 33q18 2 24 -7q6 -7 -2 -24l-48 -84q-12 -20 -60 -98.5t-71 -122.5q-51 -98 -65 -159q-4 -18 -5 -26q-8 -56 20 -73q21 -13 62 19q82 57 112 145q31 89 -32 146q-2 2 -6.5 5.5t-5.5 5t-2.5 6
t2.5 8.5q7 13 28 7q20 -2 34 -2.5t40 8.5t40.5 15t36.5 15.5t28 12.5q11 6 28 13.5t29.5 14t22.5 13.5q19 12 33 0q4 -8 -24.5 -28t-87.5 -45.5t-129 -44.5l1 -5q1 -5 2 -7q56 -91 -3 -202q-51 -103 -155 -136q-20 -6 -48 -8z" />
    <glyph glyph-name="g" unicode="g" horiz-adv-x="425" 
d="M34 -304q-61 -13 -85 25q-22 36 11 84q25 36 68 72q56 47 149 100q33 17 41 36q-10 0 -18 -3t-15.5 -7.5t-11.5 -6.5q-62 -25 -121 -9q-62 17 -53 80q4 25 20 58q46 84 130 148q31 24 69 30q26 5 47 -6t31 -33t5.5 -49.5t-21.5 -42.5q-11 -11 -21 -5q-10 5 -3 21
q11 38 9 51q-4 30 -21.5 37.5t-41.5 -9.5q-69 -51 -112 -138q-17 -35 -18 -64q-2 -34 14 -45t47 4q32 16 74 50q61 50 158 156l23 23q17 12 31 0q8 -8 -1 -26q-40 -68 -59 -103q-2 -3 -6 -8.5t-6 -9.5t-3.5 -10t-1.5 -12q5 -1 9.5 0t10.5 5.5t8 5.5q50 33 138 115q2 2 9 8
t12 10.5t12 9t13.5 6.5t11.5 1q12 -4 8 -15q-2 -6 -6 -10.5t-11 -10.5t-9 -8q-132 -128 -221 -177q-49 -28 -75 -82q-10 -21 -53 -100q-25 -45 -60 -85q-43 -49 -105 -61zM2 -270q3 -2 7 -3t6.5 -0.5t6.5 3t6 3.5t6 4.5t5 4.5q20 16 31 30q59 77 83 137q-105 -60 -146 -120
l-7 -12q-15 -34 2 -47z" />
    <glyph glyph-name="h" unicode="h" horiz-adv-x="542" 
d="M38 -10q-50 3 -35 50q11 32 26 61q113 218 294 397q53 51 102 77t91 17q39 -7 33 -47q-3 -18 -15 -39q-95 -172 -290 -227q-20 -4 -29 -20q-8 -13 -42.5 -70.5t-55.5 -93.5q10 4 19 9.5t13.5 9.5t12 12t10.5 10q97 91 183 123q44 14 74 3q19 -7 25 -17t1 -30
q-4 -15 -11.5 -29.5t-19.5 -32t-17 -26.5q-4 -7 -15 -22.5t-16.5 -27t-5.5 -25.5q5 -4 9.5 -4.5t7 0t8 3.5t6.5 3q15 7 32 16t27.5 15t30.5 20t25.5 18t29.5 21.5t26 19.5q1 1 14.5 12.5t27.5 23t30 24.5t28 21t16 8q7 -1 11.5 -10.5t0.5 -15.5q-1 -2 -43.5 -37.5
t-45.5 -37.5q-114 -90 -184 -128q-38 -20 -77 -20q-48 -1 -64 22.5t6 65.5q7 13 15.5 27t19 31t16.5 26q23 39 22 60q-34 -6 -78 -37q-55 -40 -155 -146q-28 -30 -42 -44q-22 -22 -52 -19zM259 313q146 55 216 164q22 34 28 55q7 23 -5 29q-7 5 -25 -8q-104 -72 -214 -240z
" />
    <glyph glyph-name="i" unicode="i" horiz-adv-x="244" 
d="M222 333q-24 0 -29 6q-7 8 6 25q15 23 45 60q17 20 41 18q7 -1 11.5 -5.5t1.5 -10.5q-31 -66 -60 -87q-3 -2 -9 -3.5t-7 -2.5zM71 -2q-40 1 -55 22.5t-3 59.5q23 63 92 159q3 5 11 15l12 15q14 14 26 19q22 11 36 -1q11 -9 -2 -34q-53 -95 -70 -129q-14 -27 -24 -61
q-9 -21 5 -31q8 -4 26 5q37 22 81 59q99 86 159 150q9 10 13.5 13.5t15.5 8t20 -1.5l1 -10q-126 -150 -253 -235q-37 -25 -91 -23z" />
    <glyph glyph-name="j" unicode="j" horiz-adv-x="221" 
d="M224 391q-35 2 -18 30q18 25 44 54q14 17 44 15q14 -4 14 -15q0 -21 -32 -53t-52 -31zM-293 -363q-5 1 -6.5 6t1.5 9q29 26 54 54t52 68t39 58t43.5 72t36.5 63q71 117 90 146q48 75 88 128l7 9q7 8 9 9.5t8 7.5t11 8.5t11 4.5q24 2 31 -7q6 -10 -6 -26q-47 -81 -55 -94
q-15 -29 -25 -59q-8 -21 4 -30q7 -5 27 4q36 19 82 56q105 88 139 123q22 25 42 21q11 -2 9 -10q0 -3 -4 -7q-95 -108 -210 -186q-34 -23 -69 -31q-31 -8 -65 -2h-1l-36 -68q-13 -23 -46.5 -79t-51.5 -87q-48 -88 -116 -130q-1 -1 -9 -5.5t-9 -5t-9 -5t-9.5 -5t-10 -4
t-10.5 -3t-11 -2.5t-12 -1.5t-13 0.5z" />
    <glyph glyph-name="k" unicode="k" horiz-adv-x="426" 
d="M17 -8q-32 4 -26 35q4 25 22 58q16 29 67.5 122.5t87.5 155t74 119.5q19 32 35 36q22 6 31 -4q8 -9 -1 -26q-71 -144 -71 -145q-2 -3 -8 -15.5t-11 -21.5q10 7 74 51q43 31 82 32q39 2 56 -20t4 -58q-37 -99 -124 -136q-9 -4 -27 -9.5t-25 -8.5q28 -33 13 -81
q-7 -24 3 -31q7 -4 27 5q62 30 89 53q19 17 40.5 35.5t48 41t40.5 34.5q2 2 9.5 9t11.5 10q23 19 34 7q3 -4 3.5 -7.5t-2 -7t-4.5 -5.5t-6.5 -5.5t-5.5 -4.5q-133 -119 -170 -150q-58 -47 -114 -55q-29 -3 -51 3q-32 8 -42 23.5t-5 48.5q6 24 6 37q1 22 -30 32q-5 -1 -7 0.5
t-5.5 -2.5t-4 -4.5t-3.5 -6.5l-3 -5l-57 -109q-19 -34 -55 -30zM175 181q68 -8 133.5 38t81.5 111q2 10 2 14q3 35 -31 25q-13 -4 -21 -9q-87 -54 -174 -174z" />
    <glyph glyph-name="l" unicode="l" horiz-adv-x="290" 
d="M184 2q-61 -32 -105 8t-23 104q92 269 296 423q60 46 104 38q42 -8 25 -64l-4 -12q-25 -61 -74 -109q-29 -29 -76 -62q-35 -25 -99 -58q-33 -14 -52 -46q-32 -59 -51 -115q-6 -18 -8 -27q-11 -45 3.5 -52t55.5 9q25 15 54.5 39t48.5 42t52 51.5t45 44.5q3 2 10.5 10
t13.5 12t14 5q13 2 17 -4q7 -11 -5 -23q-13 -12 -68 -69t-93.5 -89.5t-80.5 -55.5zM228 303q12 4 25.5 10.5t20.5 11t23.5 17t19.5 14.5q72 52 103 109q17 28 18 48q1 9 -4 13t-14 0q-12 -6 -24 -15q-97 -79 -168 -208z" />
    <glyph glyph-name="m" unicode="m" horiz-adv-x="674" 
d="M12 -8q-17 1 -26 14.5t-4 30.5q4 12 11 26q43 82 139 222q23 34 55 30q32 -3 18 -32q-9 -18 -26.5 -51t-21.5 -41q1 -1 3 -2t3 -3q42 30 64 45q61 41 112 46q37 4 47.5 -9t-1.5 -48l-19 -49q27 18 65 42q59 35 85 39q40 5 56 -14t2 -56q-9 -23 -30.5 -66.5t-24.5 -48.5
q-2 -4 -6.5 -12t-6.5 -13q4 -2 8 -2.5t8 1t6.5 2.5t7 4t5.5 4q88 56 228 174l7 7t8 7.5t7.5 5.5t8.5 2.5t7 -4.5q14 -15 -18 -44q-42 -37 -112 -92.5t-107 -79.5q-52 -32 -94 -31q-33 1 -46 28.5t2 56.5q12 24 36.5 67.5t31.5 57.5q3 5 -0.5 10t-10.5 4q-4 -1 -10 -5t-8 -5
q-12 -7 -23 -14.5t-22.5 -17t-20 -16.5t-21.5 -19t-19 -17.5t-20.5 -20t-18.5 -19t-19.5 -21t-18.5 -19.5q-1 -1 -7 -8t-8.5 -9.5t-8.5 -5.5t-13 -4q-16 -1 -24.5 10t-3.5 26q4 14 26 47q46 68 68 103q14 18 17 32q1 5 -3.5 8.5t-9.5 2.5q-29 -10 -58 -34q-99 -74 -200 -195
q-23 -28 -51 -27z" />
    <glyph glyph-name="n" unicode="n" horiz-adv-x="443" 
d="M-9 3q-30 4 -17 35q8 16 13 24q86 128 130 191q15 24 34 32q20 8 31 -4q9 -10 1 -26q-10 -20 -37 -71q-1 -2 0.5 -3.5t2.5 -0.5q8 1 15 4.5t15 9t11 7.5q2 1 11 6.5t12 7t11.5 6t12 6.5t11 5.5t12.5 5.5t12 4.5t13 4t12.5 2.5t13.5 2q14 3 30.5 0.5t25.5 -16.5
q16 -22 -4 -58q-8 -14 -23 -40t-22 -38q-2 -4 -9.5 -15t-10.5 -19.5t-3 -19.5q9 -1 16 1.5t18 11t12 8.5q20 13 42.5 30t37.5 29.5t41.5 35t37.5 31.5q59 49 63 51q17 11 26 1q10 -12 -8 -27l-122 -106q-65 -56 -113 -86q-45 -27 -90 -19q-26 5 -33 17.5t3 36.5
q6 15 14 28.5t24 37.5l18 27q28 43 34 65q2 5 -1.5 9t-8.5 4q-14 -1 -50 -20q-35 -21 -71.5 -51t-61 -54.5t-61.5 -63.5q-3 -3 -8.5 -10.5t-8.5 -11.5q-16 -22 -54 -17z" />
    <glyph glyph-name="o" unicode="o" horiz-adv-x="381" 
d="M56 -9q-81 20 -52 97q36 100 128 167q11 9 33 24.5t33 24.5q59 47 128 21q55 -22 43 -79q-5 -20 -26 -81q33 9 88 44q3 2 20.5 12t33.5 19.5t20 12.5q33 20 44 4q3 -5 3.5 -9t-2.5 -8t-5.5 -6.5t-7.5 -6t-7 -4.5q-117 -75 -179 -93q-39 -11 -61 -40q-41 -56 -111 -88
q-57 -28 -123 -11zM234 178q42 -52 73 7q20 37 23 69q0 28 -22 45t-44 6q-31 -15 -41 -57.5t11 -69.5zM146 25q64 24 114 88q-71 15 -115 64q-48 -58 -54 -108q-4 -31 11 -43t44 -1z" />
    <glyph glyph-name="p" unicode="p" horiz-adv-x="491" 
d="M-93 -232q-12 -4 -24.5 1t-13.5 18q-1 7 5 21q12 32 27.5 64.5t40 79.5t32.5 63q56 111 113 205q9 15 28.5 44.5t28.5 44.5q8 13 21 28q13 19 30 7q10 -2 14 -7.5t3 -14t-4 -18t-11 -23.5t-15.5 -26.5t-18 -30.5t-18.5 -32q-2 -3 -4.5 -8.5t-6 -14t-7.5 -16.5l38 45
q56 56 76 71q33 25 65 36q70 21 104 -14q34 -34 3 -99q-21 -44 -80.5 -104t-113.5 -67q52 -8 124 25q34 16 104 73t84 67q3 2 18 13.5t29 21t18 11.5q24 14 36 -1q3 -4 3.5 -8t0 -6t-3.5 -5t-4.5 -4t-6.5 -4l-5 -3q-19 -14 -73 -58.5t-101.5 -79.5t-79.5 -48
q-141 -56 -264 21q-10 -3 -74.5 -100t-91.5 -149q-6 -13 -25 -19zM168 59q13 -4 34 2q56 15 103 66.5t62 109.5q3 12 3 25q0 31 -27 25q-70 -15 -149 -109q-16 -20 -46 -62l-11 -17q-6 -7 -6 -11l1 -2l2 -4q10 -19 34 -23z" />
    <glyph glyph-name="q" unicode="q" horiz-adv-x="453" 
d="M95 -273q-59 8 -53 71q5 36 34 82q12 20 26.5 42.5t32.5 50t28 42.5q-8 4 -10.5 5t-9.5 -3t-9 -5q-47 -13 -84 -4q-34 8 -44.5 25t-1.5 50q4 15 12 31q59 121 167 188q43 26 90 23q66 -4 53 -69q-1 -3 -3.5 -10t-3.5 -11t1 -13q10 6 19.5 14.5t19.5 20t16 16.5
q23 23 38 26q21 4 30 -9q2 -3 2.5 -5.5t-0.5 -5.5t-2 -5t-3.5 -5t-3.5 -4q-38 -54 -58 -80q-29 -40 -76 -102q26 -3 70 15q26 11 58 32.5t73.5 54t52.5 40.5q29 20 42 20q21 0 24 -10q3 -8 -11 -19q-3 -2 -40.5 -31.5t-52 -39.5t-45.5 -31.5t-56 -33.5t-48 -20
q-27 -8 -31.5 -14.5t-1.5 -32.5q11 -97 -58 -184q-38 -46 -60 -67q-47 -43 -123 -35zM105 46q129 61 178 191q1 3 2.5 8.5t1.5 6.5q3 31 -14 40q-12 7 -34 -10q-99 -69 -148 -191q-5 -12 -7 -28q-1 -13 4.5 -17.5t16.5 0.5zM145 -241q13 6 24 15q74 63 107 135q31 66 3 134
q-40 -51 -59.5 -76.5t-47.5 -70t-44 -84.5q-10 -24 -8 -37q3 -26 25 -16z" />
    <glyph glyph-name="r" unicode="r" horiz-adv-x="345" 
d="M171 2q-30 2 -41 19t0 46q4 10 14.5 28.5t14.5 26.5q14 28 10 44.5t-29 35.5q-3 2 -8.5 5.5t-7.5 5.5q-34 23 -41.5 44t5.5 60q19 61 87 115q9 7 30 13q37 10 53 -6.5t6 -54.5q-13 -48 -59 -102q-6 -7 -17.5 -19.5t-17.5 -19.5q31 -30 45 -44q29 -34 9 -75
q-27 -56 -30 -82q7 0 13.5 1t13.5 4.5l10 5t10.5 7.5t8.5 7q26 21 88.5 75t79.5 68q20 16 30 23q25 16 34 3q3 -4 3 -7.5t-2 -6.5t-4.5 -5t-6.5 -5t-6 -5q-17 -14 -92 -79t-108 -92q-48 -39 -95 -34zM159 284q36 36 49.5 64.5t14.5 69.5q-88 -68 -64 -134z" />
    <glyph glyph-name="s" unicode="s" horiz-adv-x="253" 
d="M-31 -234q-41 3 -61.5 27t-17.5 64q5 64 63 118q47 46 104 74q38 20 35 64q-3 54 10 113q9 47 39 85q21 23 43 27q10 2 10 -6v-2q-18 -31 -28.5 -54.5t-14 -47t-4.5 -33t1.5 -39.5t3.5 -41q0 -16 28 6q4 3 6 4q25 15 74.5 45.5t74.5 45.5q22 14 28 17q4 2 11 6t12 7t11 5
t10.5 1t7.5 -6q2 -4 2.5 -8.5t-1.5 -8t-4 -6.5t-6.5 -6.5t-7.5 -5.5t-8 -5t-7 -4q-107 -70 -201 -125q-30 -19 -29 -53q2 -104 -31 -170q-22 -46 -62.5 -69.5t-90.5 -18.5zM13 -176q36 34 51 79.5t22 113.5q-80 -50 -105 -96q-23 -41 -15 -81q10 -50 47 -16z" />
    <glyph glyph-name="t" unicode="t" horiz-adv-x="280" 
d="M111 -12q-47 3 -67 30.5t-7 72.5q14 55 68 155q2 4 8.5 14.5t10.5 19.5t4 18q-14 5 -24 4.5t-25 1.5q-2 0 -7 0.5t-7.5 1t-6.5 1.5t-6.5 2.5t-5.5 3t-4 4.5t-1 7q0 6 3 9.5t7 4.5t9 1.5t10 0.5h10l44 -2q37 -5 57 31q27 41 59 86q12 18 23 23q17 6 32 -3q12 -8 1 -29
q-10 -19 -29 -55.5t-25 -48.5q10 -7 14 -7q2 -1 13 -3t14.5 -6t2.5 -13q-2 -17 -36 -14q-34 5 -54 -33q-3 -6 -35 -67t-46 -94q-8 -19 -12 -47q-2 -18 8.5 -24.5t28.5 -0.5q32 14 47 23q55 35 126 106l68 67q25 23 35 12q6 -10 2.5 -20.5t-11.5 -17.5q-10 -9 -71.5 -71
t-115.5 -105q-63 -42 -109 -39z" />
    <glyph glyph-name="u" unicode="u" horiz-adv-x="464" 
d="M329 3q-41 -12 -66.5 1t-40.5 54q-17 -12 -51 -34q-43 -27 -101 -17q-56 9 -50 67q3 20 11 41q30 74 94 164q15 19 30 21q19 3 27 -5.5t0 -25.5q-5 -12 -51 -106q-23 -44 -33 -89q-5 -27 6 -35q2 -4 8.5 -2.5t8 2t7.5 4t7 4.5q34 18 68 50q88 84 125 147q20 32 49 31
q37 0 22 -33q-4 -9 -13.5 -26t-12.5 -24q-43 -87 -48 -98q0 -1 -3.5 -8t-4 -9t-2.5 -8t-2 -10t1 -9.5t3 -10.5q21 3 63 29q22 14 56.5 43t77 67.5t52.5 47.5q33 29 58 14q0 -9 -1 -10q-145 -147 -225 -196q-32 -20 -69 -31z" />
    <glyph glyph-name="v" unicode="v" horiz-adv-x="347" 
d="M105 8q-53 1 -74 29t-3 72q32 76 97 156q20 26 43 26q28 0 18 -24q-2 -6 -24 -46q-40 -72 -52 -111q-9 -30 -10 -51q-1 -14 5.5 -19.5t21.5 0.5q24 10 41 22q105 74 153 182q8 19 16 40.5t17.5 48t14.5 40.5q7 19 11 25q4 8 16 6q11 -3 11 -13q1 -9 -2 -19
q-29 -97 -66.5 -169t-99.5 -127q-75 -66 -134 -68z" />
    <glyph glyph-name="w" unicode="w" horiz-adv-x="550" 
d="M146 10q-50 -20 -98 11t-33 82q33 110 135 208q2 2 16 10q14 5 23 -2q5 -4 7 -17.5t-1 -17.5l-24 -40q-59 -93 -75 -142q-1 -2 -4 -9t-4 -10.5t-2.5 -10t-1.5 -10t0.5 -9t3.5 -9.5t8 -7q4 -3 8.5 -4.5t9 0t8.5 2.5t9 5l7.5 6t7.5 6.5t7 6.5q60 47 138 142q1 1 8 9t9 9.5
t8 6.5t11.5 7t12.5 3q14 2 20 -5t0 -20q-6 -15 -20.5 -43t-16.5 -33q-19 -42 -15 -68q4 -25 14.5 -31t33.5 4q16 7 32 20q98 80 122.5 154t1.5 195q0 2 -3.5 9.5t-3 12t6.5 7.5q22 10 36 -14q6 -8 6 -12q10 -53 13 -86.5t-4 -79t-30 -82.5q-45 -73 -99 -119q-34 -27 -61 -35
q-51 -16 -83.5 -2t-57.5 65q-45 -45 -86 -63z" />
    <glyph glyph-name="x" unicode="x" horiz-adv-x="409" 
d="M20 -22q-38 -22 -44 -3q-5 15 15 31q1 1 3 2q19 12 105 73q27 20 20 56q-22 92 -17 155q3 38 40 32q20 -4 25 -31q3 -17 9.5 -51t9.5 -51l1 -6q1 -6 2 -8t4 -6t8 -7l68 53q44 34 68 42q17 8 25 -5q3 -2 1.5 -6t-2.5 -5t-4.5 -4t-4.5 -4l-121 -105l-10 -7
q-10 -7 -12 -12.5t0 -13.5q11 -39 35 -55q9 -7 35 5q49 23 106 71q8 7 51.5 44t62.5 55l6.5 6.5t7.5 6.5q27 23 41 8q4 -4 5 -8t-1.5 -8t-4 -6t-6.5 -6.5t-6 -5.5q-105 -99 -177 -151q-41 -29 -79 -41q-80 -24 -126 28q-16 18 -39 1q-53 -35 -100 -63z" />
    <glyph glyph-name="y" unicode="y" horiz-adv-x="482" 
d="M8 -327q-75 4 -52 75q17 53 73 102q68 63 132 99q35 20 55 50t37 78q-6 -4 -25.5 -17.5t-28.5 -19.5q-47 -28 -109 -28q-75 2 -69 75q3 35 22 72q17 33 71 111q10 12 16 17q18 17 35 4q19 -15 8 -35q-50 -95 -56 -109q-20 -46 -18 -78q1 -19 7.5 -23.5t24.5 2.5
q27 12 66 45q36 30 119 122q17 18 53 54q20 20 43 5q16 -10 2 -37l-75 -143q-1 -2 -4 -7.5t-4.5 -8.5t-3 -8.5t-0.5 -11.5q17 3 55 29q114 78 171 118q14 8 47 30q30 16 39 2l3 -9t-2.5 -6.5t-6 -5.5t-7.5 -5t-7 -4q-24 -17 -83 -59.5t-106.5 -75t-87.5 -53.5
q-58 -31 -79 -88q-19 -52 -59 -124q-31 -63 -85 -99q-54 -38 -111 -35zM30 -295q49 21 79 66q19 26 38 70q10 21 17 38l12 21q4 10 5 15q-2 -1 -13 -9q-105 -62 -150 -134q-16 -23 -15 -49q0 -29 27 -18z" />
    <glyph glyph-name="z" unicode="z" horiz-adv-x="400" 
d="M37 -328q-15 4 -16 15q-2 11 9 15q12 5 23 10.5t22.5 15.5t18 15t19 20l15 18t17 21.5t14.5 19.5q53 70 110 223q7 22 4 41q-13 0 -25.5 -4.5t-27 -11.5t-22.5 -10l-21 -9t-22.5 -9t-21 -6.5t-24.5 -3.5h-10t-11.5 0.5t-8.5 3t-9 7.5q-3 5 -4 9.5t1 9t3.5 6.5t5.5 7t5 6
q10 12 21 26.5t23.5 32t20.5 27.5q22 28 33 43q30 38 32 44q-23 -1 -58 -28q-1 0 -7.5 -5.5t-10 -8t-11.5 -6t-11 0.5q-8 0 -10 8q-3 7 1 16q3 5 13 13q51 38 70 48q47 24 97 23q12 0 21 -6q11 -10 1 -29q-18 -31 -45 -66q-17 -24 -51 -68t-44 -57q15 0 51 13q8 2 23 6.5
t18 5.5q59 12 81.5 -12t5.5 -81q-55 -195 -208 -320q-49 -39 -100 -29z" />
    </font>
</defs>
</svg>
